<svg xmlns="http://www.w3.org/2000/svg" width="512" height="48" viewBox="0 0 512 48"><g transform="translate(0 0)"><ellipse cx="16" cy="44" rx="10" ry="3" fill="#000" opacity=".3"/><rect x="8" y="20" width="16" height="20" rx="5" fill="#ffb347"/><circle cx="16" cy="12" r="8" fill="#f4d2b0"/><circle cx="16" cy="11" r="1.5" fill="#14151b"/><path d="M10 39h12" stroke="#14151b" stroke-width="2"/></g><g transform="translate(32 1)"><ellipse cx="16" cy="44" rx="10" ry="3" fill="#000" opacity=".3"/><rect x="8" y="20" width="16" height="20" rx="5" fill="#ffb347"/><circle cx="16" cy="12" r="8" fill="#f4d2b0"/><circle cx="16" cy="11" r="1.5" fill="#14151b"/><path d="M10 39h12" stroke="#14151b" stroke-width="2"/></g><g transform="translate(64 0)"><ellipse cx="16" cy="44" rx="10" ry="3" fill="#000" opacity=".3"/><rect x="8" y="20" width="16" height="20" rx="5" fill="#ffb347"/><circle cx="16" cy="12" r="8" fill="#f4d2b0"/><circle cx="16" cy="11" r="1.5" fill="#14151b"/><path d="M10 39h12" stroke="#14151b" stroke-width="2"/></g><g transform="translate(96 1)"><ellipse cx="16" cy="44" rx="10" ry="3" fill="#000" opacity=".3"/><rect x="8" y="20" width="16" height="20" rx="5" fill="#ffb347"/><circle cx="16" cy="12" r="8" fill="#f4d2b0"/><circle cx="16" cy="11" r="1.5" fill="#14151b"/><path d="M10 39h12" stroke="#14151b" stroke-width="2"/></g><g transform="translate(128 0)"><ellipse cx="16" cy="44" rx="10" ry="3" fill="#000" opacity=".3"/><rect x="8" y="20" width="16" height="20" rx="5" fill="#ff6b6b"/><circle cx="16" cy="12" r="8" fill="#f4d2b0"/><circle cx="10" cy="11" r="1.5" fill="#14151b"/><path d="M10 39h12" stroke="#14151b" stroke-width="2"/></g><g transform="translate(160 1)"><ellipse cx="16" cy="44" rx="10" ry="3" fill="#000" opacity=".3"/><rect x="8" y="20" width="16" height="20" rx="5" fill="#ff6b6b"/><circle cx="16" cy="12" r="8" fill="#f4d2b0"/><circle cx="10" cy="11" r="1.5" fill="#14151b"/><path d="M10 39h12" stroke="#14151b" stroke-width="2"/></g><g transform="translate(192 0)"><ellipse cx="16" cy="44" rx="10" ry="3" fill="#000" opacity=".3"/><rect x="8" y="20" width="16" height="20" rx="5" fill="#ff6b6b"/><circle cx="16" cy="12" r="8" fill="#f4d2b0"/><circle cx="10" cy="11" r="1.5" fill="#14151b"/><path d="M10 39h12" stroke="#14151b" stroke-width="2"/></g><g transform="translate(224 1)"><ellipse cx="16" cy="44" rx="10" ry="3" fill="#000" opacity=".3"/><rect x="8" y="20" width="16" height="20" rx="5" fill="#ff6b6b"/><circle cx="16" cy="12" r="8" fill="#f4d2b0"/><circle cx="10" cy="11" r="1.5" fill="#14151b"/><path d="M10 39h12" stroke="#14151b" stroke-width="2"/></g><g transform="translate(256 0)"><ellipse cx="16" cy="44" rx="10" ry="3" fill="#000" opacity=".3"/><rect x="8" y="20" width="16" height="20" rx="5" fill="#72d6c9"/><circle cx="16" cy="12" r="8" fill="#f4d2b0"/><circle cx="20" cy="11" r="1.5" fill="#14151b"/><path d="M10 39h12" stroke="#14151b" stroke-width="2"/></g><g transform="translate(288 1)"><ellipse cx="16" cy="44" rx="10" ry="3" fill="#000" opacity=".3"/><rect x="8" y="20" width="16" height="20" rx="5" fill="#72d6c9"/><circle cx="16" cy="12" r="8" fill="#f4d2b0"/><circle cx="20" cy="11" r="1.5" fill="#14151b"/><path d="M10 39h12" stroke="#14151b" stroke-width="2"/></g><g transform="translate(320 0)"><ellipse cx="16" cy="44" rx="10" ry="3" fill="#000" opacity=".3"/><rect x="8" y="20" width="16" height="20" rx="5" fill="#72d6c9"/><circle cx="16" cy="12" r="8" fill="#f4d2b0"/><circle cx="20" cy="11" r="1.5" fill="#14151b"/><path d="M10 39h12" stroke="#14151b" stroke-width="2"/></g><g transform="translate(352 1)"><ellipse cx="16" cy="44" rx="10" ry="3" fill="#000" opacity=".3"/><rect x="8" y="20" width="16" height="20" rx="5" fill="#72d6c9"/><circle cx="16" cy="12" r="8" fill="#f4d2b0"/><circle cx="20" cy="11" r="1.5" fill="#14151b"/><path d="M10 39h12" stroke="#14151b" stroke-width="2"/></g><g transform="translate(384 0)"><ellipse cx="16" cy="44" rx="10" ry="3" fill="#000" opacity=".3"/><rect x="8" y="20" width="16" height="20" rx="5" fill="#9b8cff"/><circle cx="16" cy="12" r="8" fill="#f4d2b0"/><circle cx="16" cy="11" r="1.5" fill="#14151b"/><path d="M10 39h12" stroke="#14151b" stroke-width="2"/></g><g transform="translate(416 1)"><ellipse cx="16" cy="44" rx="10" ry="3" fill="#000" opacity=".3"/><rect x="8" y="20" width="16" height="20" rx="5" fill="#9b8cff"/><circle cx="16" cy="12" r="8" fill="#f4d2b0"/><circle cx="16" cy="11" r="1.5" fill="#14151b"/><path d="M10 39h12" stroke="#14151b" stroke-width="2"/></g><g transform="translate(448 0)"><ellipse cx="16" cy="44" rx="10" ry="3" fill="#000" opacity=".3"/><rect x="8" y="20" width="16" height="20" rx="5" fill="#9b8cff"/><circle cx="16" cy="12" r="8" fill="#f4d2b0"/><circle cx="16" cy="11" r="1.5" fill="#14151b"/><path d="M10 39h12" stroke="#14151b" stroke-width="2"/></g><g transform="translate(480 1)"><ellipse cx="16" cy="44" rx="10" ry="3" fill="#000" opacity=".3"/><rect x="8" y="20" width="16" height="20" rx="5" fill="#9b8cff"/><circle cx="16" cy="12" r="8" fill="#f4d2b0"/><circle cx="16" cy="11" r="1.5" fill="#14151b"/><path d="M10 39h12" stroke="#14151b" stroke-width="2"/></g></svg>

